# xmcd
#
# Track frame offsets:
#	150
#	5750
#	14275
#	25964
#	33481
#	40435
#	49093
#	58497
#	93622
#	108849
#	127426
#	143203
#	167337
#	179076
#
# Disc length: 2648 seconds
#
# Revision: 1
# Processed by: cddbd v1.5.2PL0 Copyright (c) Steve Scherf et al.
# Submitted via: EasyCDDAExtractor 16.0.6.1
#
DISCID=cd0a560e
DTITLE=Συλλογικός δίσκος - Παραδ. χοροί κ τραγούδια 3 Πόντος-Μακεδονία
DYEAR=2006
DGENRE=Παραδοσιακή
TTITLE0=Κουρτίδης Γιάννης - Δάβαινε τα μεσάνυχτα
TTITLE1=Κουρτίδης Γιάννης - Τα μαλλόπας
TTITLE2=Κουρτίδης Γιάννης - Κότσαρι
TTITLE3=Κουρτίδης Γιάννης - Σερενίτσα
TTITLE4=Κουρτίδης Γιάννης - Ετέρε
TTITLE5=Κουρτίδης Γιάννης - Μακρύ ποτάμ'
TTITLE6=Κουρτίδης Γιάννης - Άϊντε ας πάμε σο παρχάρ
TTITLE7=Άνευ ερμηνευτού - Συρτά διάφ. Μακεδονίας [Ορχ. Δ. Παράσχου-Χάλκ. Γουμέ
TTITLE7=ν. Αλέξ. Ζώρα]
TTITLE8=Άνευ ερμηνευτού - Πατρούλα [Ορχ. Δ. Παράσχου-Χάλκινα Γουμένισσας Αλέξ.
TTITLE8=Ζώρα]
TTITLE9=Άνευ ερμηνευτού - Χασαποσέρβικο [Ορχ. Δ. Παράσχου-Χάλκινα Γουμένισσας 
TTITLE9=Αλέξ. Ζώρα]
TTITLE10=Άνευ ερμηνευτού - Ζάϊκος [Ορχ. Δ. Παράσχου-Χάλκινα Γουμένισσας Αλέξ. 
TTITLE10=Ζώρα]
TTITLE11=Άνευ ερμηνευτού - Πουστσένο [Ορχ. Δ. Παράσχου-Χάλκινα Γουμένισσας Αλέ
TTITLE11=ξ. Ζώρα]
TTITLE12=Άνευ ερμηνευτού - Αλωνιώτικος [Ορχ. Δ. Παράσχου-Χάλκινα Γουμένισσας Α
TTITLE12=λέξ. Ζώρα]
TTITLE13=Άνευ ερμηνευτού - Συρτός τετράσημος [Ορχ. Δ. Παράσχου-Χάλκινα Γουμέν.
TTITLE13=Αλέξ. Ζώρα]
EXTD=
EXTT0=
EXTT1=
EXTT2=
EXTT3=
EXTT4=
EXTT5=
EXTT6=
EXTT7=
EXTT8=
EXTT9=
EXTT10=
EXTT11=
EXTT12=
EXTT13=
PLAYORDER=
